<?xml version="1.0" encoding="utf-8"?>
<!-- Generator: Adobe Illustrator 21.0.0, SVG Export Plug-In . SVG Version: 6.00 Build 0)  -->
<svg version="1.1" id="Calque_1" xmlns="http://www.w3.org/2000/svg" xmlns:xlink="http://www.w3.org/1999/xlink" x="0px" y="0px"
	 viewBox="0 0 280.7 37.8" style="enable-background:new 0 0 280.7 37.8;" xml:space="preserve" preserveAspectRatio="xMinYMid">
<style type="text/css">
	.st0{fill:#E9041E;}
	.st1{fill:#FFFFFF;}
	.st2{fill:none;}
</style>
<title>SG_Brand Block_2 L_LIGHT BKGD-FR-RGB</title>
<path d="M0,9.3c0-4.9,3.8-8.4,8.9-8.4c2.7-0.1,5.3,1,7,3.1L13,6.6c-0.9-1.2-2.3-1.9-3.8-1.9C6.7,4.6,4.7,6.4,4.6,8.8
	c0,0.2,0,0.3,0,0.5c-0.2,2.4,1.6,4.5,4,4.6c0.2,0,0.3,0,0.5,0c1.5,0,2.9-0.7,3.8-1.9l2.9,2.6c-1.7,2.1-4.3,3.2-7,3.1
	C3.8,17.7,0,14.2,0,9.3z"/>
<path d="M22.1,2.6c0,0.9-0.3,1.8-0.7,2.7l-1.5,3.4h-2.8l1.1-3.8c-0.9-0.4-1.4-1.3-1.4-2.3C16.8,1.2,18,0,19.5,0
	C20.9,0,22.1,1.2,22.1,2.6L22.1,2.6z"/>
<path d="M37.3,13.9v3.5h-13V1.2H37v3.5h-8.2v2.7H36v3.4h-7.2v3L37.3,13.9z"/>
<path d="M38.6,15.9l1.5-3.4c1.6,1,3.5,1.6,5.3,1.6c1.9,0,2.6-0.5,2.6-1.3c0-2.6-9.2-0.7-9.2-6.7c0-2.9,2.4-5.3,7.2-5.3
	c2,0,4.1,0.5,5.9,1.4l-1.4,3.4c-1.4-0.8-2.9-1.2-4.5-1.3c-1.9,0-2.6,0.6-2.6,1.5c0,2.5,9.2,0.6,9.2,6.6c0,2.8-2.4,5.2-7.2,5.2
	C43,17.8,40.6,17.2,38.6,15.9z"/>
<path d="M58.5,4.8h-5V1.2H68v3.6h-5v12.6h-4.5V4.8z"/>
<path d="M92.2,1.2l-6.9,16.2h-4.5L73.8,1.2h5l4.4,10.6l4.5-10.6H92.2z"/>
<path d="M91.5,9.3c0-4.9,3.8-8.4,9-8.4s9,3.6,9,8.4s-3.8,8.4-9,8.4S91.5,14.2,91.5,9.3z M104.9,9.3c0.2-2.4-1.7-4.5-4.1-4.7
	c-2.4-0.2-4.5,1.7-4.7,4.1c0,0.2,0,0.4,0,0.6c-0.2,2.4,1.7,4.5,4.1,4.7c2.4,0.2,4.5-1.7,4.7-4.1C104.9,9.7,104.9,9.5,104.9,9.3z"/>
<path d="M112.2,10.2v-9h4.6V10c0,2.8,1.2,3.9,3.1,3.9s3.1-1.1,3.1-3.9V1.2h4.5v9c0,4.8-2.8,7.6-7.6,7.6S112.2,15,112.2,10.2z"/>
<path d="M129.3,15.9l1.5-3.4c1.6,1,3.5,1.6,5.4,1.6c1.9,0,2.6-0.5,2.6-1.3c0-2.6-9.2-0.7-9.2-6.7c0-2.9,2.4-5.3,7.2-5.3
	c2,0,4.1,0.5,5.9,1.4l-1.4,3.4c-1.4-0.8-2.9-1.2-4.5-1.3c-1.9,0-2.6,0.6-2.6,1.5c0,2.5,9.2,0.6,9.2,6.6c0,2.8-2.4,5.2-7.2,5.2
	C133.7,17.8,131.3,17.2,129.3,15.9z"/>
<path d="M35.6,21.5h4.6v12.6h7.7v3.6H35.6V21.5z"/>
<path d="M52.3,23c0,0.9-0.3,1.9-0.7,2.7L50,29h-2.8l1.1-3.8C47.5,24.9,47,24,47,23c0-1.5,1.2-2.6,2.6-2.6
	C51.1,20.4,52.3,21.6,52.3,23L52.3,23z"/>
<path d="M63.9,34.6h-6.8l-1.3,3.1h-4.7l7.1-16.2h4.5L70,37.7h-4.8L63.9,34.6z M62.6,31.2L60.5,26l-2,5.2H62.6z"/>
<path d="M84.9,21.5l-6.9,16.2h-4.5l-6.9-16.2h5l4.4,10.5l4.5-10.5H84.9z"/>
<path d="M99.5,34.2v3.5H86.5V21.5h12.7v3.5H91v2.7h7.2v3.4H91v3L99.5,34.2z"/>
<path d="M117.4,21.5v16.2h-3.8l-7.1-8.6v8.6H102V21.5h3.8l7.2,8.6v-8.6H117.4z"/>
<path d="M120.5,21.5h4.6v16.2h-4.6V21.5z"/>
<path d="M135.3,33.4h-2.5v4.3h-4.6V21.5h7.4c4.4,0,7.2,2.3,7.2,6c0.1,2.2-1.2,4.2-3.2,5.1l3.5,5.1h-4.9L135.3,33.4z M135.4,25.2
	h-2.6v4.7h2.6c1.9,0,2.8-0.9,2.8-2.4S137.3,25.2,135.4,25.2L135.4,25.2z"/>
<path d="M194.4,9.7c-1.3-0.6-2.7-0.9-4.1-0.9c-1.9,0-2.8,0.4-2.8,1.1c0,2.1,8.4,0.4,8.4,4.8c0,1.8-1.7,3.2-5.2,3.2
	c-1.9,0-3.8-0.5-5.5-1.4l0.8-1.7c1.4,0.8,3.1,1.3,4.7,1.3c2,0,3.1-0.6,3.1-1.5c0-2.3-8.4-0.6-8.4-4.7c0-1.8,1.7-3,4.8-3
	c1.7,0,3.4,0.4,4.9,1.1L194.4,9.7z"/>
<path d="M203.7,8.7c-2.1-0.2-3.9,1.4-4.1,3.5c0,0.1,0,0.2,0,0.2c-0.2,2.3,1.5,4.2,3.7,4.4c2.3,0.2,4.2-1.5,4.4-3.7s-1.5-4.2-3.7-4.4
	C203.9,8.8,203.8,8.8,203.7,8.7 M203.7,18.1c-3.3,0-6.1-2.2-6.1-5.6s2.8-5.5,6.1-5.5s6.1,2.3,6.1,5.5S207,18.1,203.7,18.1"/>
<path d="M217.7,18c-3.5,0-6.1-2.2-6.1-5.6s2.7-5.5,6.1-5.5c1.8,0,3.5,0.5,4.9,1.6l-1,1.5c-1.1-0.8-2.4-1.3-3.8-1.3
	c-2.6,0-4.1,1.6-4.1,3.7s1.6,3.7,4.2,3.7c1.4,0,2.7-0.4,3.9-1.3l1,1.5C221.2,17.6,219.5,18.1,217.7,18"/>
<rect x="224.8" y="7.3" width="1.9" height="10.5"/>
<polygon points="229.6,7.3 229.6,17.8 239.5,17.8 239.5,16 231.6,16 231.6,13.3 237.5,13.3 237.5,11.6 231.6,11.6 231.6,9 239.2,9 
	239.2,7.3 "/>
<polygon points="240.6,7.3 240.6,9 244.8,9 244.8,17.8 246.8,17.8 246.8,9 251,9 251,7.3 "/>
<polygon points="252.6,7.3 252.6,17.8 262.5,17.8 262.5,16 254.5,16 254.5,13.3 260.5,13.3 260.5,11.6 254.5,11.6 254.5,9 262.2,9 
	262.2,7.3 "/>
<path d="M191.2,30.2c1,0,2.1-0.2,3-0.6v-3h1.9v4.1c-1.5,1-3.2,1.5-5,1.4c-3.5,0-6.1-2.2-6.1-5.5s2.7-5.5,6.1-5.5
	c1.8,0,3.5,0.5,4.9,1.5l-1,1.5c-1.1-0.8-2.4-1.3-3.8-1.3c-2.6,0-4.1,1.6-4.1,3.7S188.6,30.2,191.2,30.2"/>
<polygon points="198.6,21.2 198.6,31.7 208.5,31.7 208.5,30 200.6,30 200.6,27.2 206.5,27.2 206.5,25.5 200.6,25.5 200.6,23 
	208.2,23 208.2,21.2 "/>
<path d="M212.3,31.7h-1.9V21.2h2l6.8,7.9l0,0c-0.1-2-0.1-3.6-0.1-5.1v-2.8h1.9v10.5h-2l-6.8-7.9l0,0c0.1,1.5,0.1,4.3,0.1,5.1
	L212.3,31.7z"/>
<polygon points="223.8,21.2 223.8,31.7 233.7,31.7 233.7,30 225.8,30 225.8,27.2 231.7,27.2 231.7,25.5 225.8,25.5 225.8,23 
	233.4,23 233.4,21.2 "/>
<path d="M242.3,26.1c1.2,0,1.9-0.6,1.9-1.5c0.1-0.8-0.6-1.6-1.4-1.6c-0.1,0-0.2,0-0.3,0h-4.8v3.2H242.3z M240.8,27.9h-3.1v3.9h-1.9
	V21.2h6.7c2.2,0,3.6,1.4,3.6,3.3c0,1.7-1.3,3.1-3,3.2l3.1,3.9h-2.4L240.8,27.9z"/>
<path d="M253,23.2l2,4.3h-4L253,23.2z M252,21.2l-5.1,10.5h2.1l1.2-2.5h5.7l1.2,2.5h2.1l-5.1-10.5H252z"/>
<polygon points="260.6,21.2 260.6,31.7 269.5,31.7 269.5,30 262.5,30 262.5,21.2 "/>
<polygon points="270.9,21.2 270.9,31.7 280.7,31.7 280.7,30 272.8,30 272.8,27.2 278.7,27.2 278.7,25.5 272.8,25.5 272.8,23 
	280.4,23 280.4,21.2 "/>
<rect x="152.6" y="6.9" class="st0" width="25.1" height="12.8"/>
<rect x="152.6" y="19.5" width="25.1" height="12.5"/>
<rect x="157" y="18.7" class="st1" width="16.3" height="1.5"/>
<rect x="-12.5" y="-11.3" class="st2" width="305.6" height="61.6"/>
</svg>
